<?xml version="1.0" encoding="utf-8"?>
<!-- Generator: Adobe Illustrator 19.2.0, SVG Export Plug-In . SVG Version: 6.00 Build 0)  -->
<svg version="1.1" id="Layer_1" xmlns="http://www.w3.org/2000/svg" xmlns:xlink="http://www.w3.org/1999/xlink" x="0px" y="0px"
	 viewBox="0 0 1728 363" style="enable-background:new 0 0 1728 363;" xml:space="preserve">
<style type="text/css">
	.st0{fill:#EC3926;}
	.st1{fill:#F89822;}
	.st2{fill:#579FD1;}
	.st3{fill:#193F6E;}
	.st4{fill:#434143;}
	.st5{fill:#FFFFFF;}
</style>
<g>
	<rect id="red_x5F_bar" x="13" y="307.2" class="st0" width="341.3" height="35.1"/>
	<rect id="orange_x5F_bar" x="354.3" y="307.2" class="st1" width="341.3" height="35.1"/>
	<rect id="blue_x5F_bar" x="695.6" y="307.2" class="st2" width="341.3" height="35.1"/>
	<rect id="navy_x5F_bar" x="1036.8" y="307.2" class="st3" width="341.3" height="35.1"/>
	<rect id="black_x5F_bar" x="1378.1" y="307.2" class="st4" width="341.3" height="35.1"/>
	<path id="A" class="st5" d="M118.1,72.9h0.5l22.2,72.9H94L118.1,72.9z M88.2,34.4L17.4,220.8h50.5L82.5,181h70l13.9,39.8h54.5
		L149.1,34.4H88.2z"/>
	<rect id="I" x="232.2" y="34.4" class="st5" width="49.7" height="186.4"/>
	<path id="D" class="st5" d="M308.3,34.4h67.8c64.9,0,110.3,20.3,110.3,92.4c0,69.7-46.7,94-110.3,94h-67.8V34.4z M358,184h19.2
		c37.1,0,58-19.2,58-56.4s-21.6-56.4-58-56.4H358V184z"/>
	<path id="S" class="st5" d="M500.7,174.9c12.8,7,30.7,12.3,51.3,12.3c15.8,0,30.7-3.2,30.7-18.2c0-34.7-88.1-12.8-88.1-80.7
		c0-44.9,43.8-57.2,81.2-57.2c17.9,0,35.5,2.7,48.1,6.9l-3.2,38.5c-12.8-5.9-27.2-8.6-41.4-8.6c-12.6,0-33.4,1.1-33.4,17.4
		c0,30.2,88.1,9.9,88.1,77.2c0,48.4-40.6,61.4-82,61.4c-17.4,0-39-2.7-55.5-8L500.7,174.9z"/>
	<polygon id="_x2F_" class="st5" points="701,0 724.5,0 660.3,250.7 636.9,250.7 	"/>
	<polygon id="L" class="st5" points="736,34.4 762.7,34.4 762.7,197.3 840.7,197.3 840.7,220.8 736,220.8 	"/>
	<path id="i2" class="st5" d="M891.9,54.2h-28.3V25.9h28.3V54.2z M865.2,84.6h25.1v136.2h-25.1L865.2,84.6L865.2,84.6z"/>
	<path id="f" class="st5" d="M941.9,104.9h-32.1V84.6h32.1V72.1c0-33.1,8.5-54.8,45.7-54.8c5.6,0.1,11.3,0.6,16.8,1.6l-1.1,20.3
		c-2.9-1.1-7.8-1.6-12-1.6c-21.6,0-24.3,13.9-24.3,32.3v14.7h36v20.3h-36v115.9h-25.2V104.9z"/>
	<path id="e1" class="st5" d="M1123.3,215.2c-9.6,3.5-20.6,8.8-43,8.8c-48.3,0-70.5-29.4-70.5-73.7c0-40.3,25.4-68.9,63.8-68.9
		c45.4,0,60.1,33.1,60.1,76.9h-97.2c0,27,21.1,45.4,44.9,45.4c16.6,0,35.8-8.6,41.9-13.6V215.2L1123.3,215.2z M1107,139.6
		c0-20.8-12.3-37.9-33.9-37.9c-24.6,0-34.7,20.3-36.6,37.9H1107z"/>
	<path id="c1" class="st5" d="M1287.9,65.1c-11.6-6.9-24.9-10.5-38.5-10.4c-43,0-71.6,31-71.6,72.9c0,43.8,31.5,72.9,70.2,72.9
		c13.3,0,31.2-3.5,40.6-9.1l1.6,25.9c-14.2,5.9-31.5,6.7-42.5,6.7c-59,0-98.3-37.9-98.3-97.2c0-57.4,41.7-95.6,98.6-95.6
		c14.4,0,28.6,2.1,41.9,8L1287.9,65.1z"/>
	<path id="y" class="st5" d="M1304.5,257.7c3.8,1.3,7.7,2.1,11.8,2.1c22.4,0,29.9-31,29.9-33.6c0-2.9-3.2-9.9-4.8-14.4l-46.2-127.1
		h27.5l36.6,112.7h0.5l37.4-112.7h25.4l-50.2,139.1c-9.3,26.2-19.2,56.4-52.3,56.4c-5.7,0-11.5-0.6-17.1-1.9L1304.5,257.7z"/>
	<path id="c2" class="st5" d="M1518.7,107.6c-8.6-3.7-17.9-5.7-27.2-5.9c-28,0-43.8,25.1-43.8,51c0,24.3,13.1,51,45.4,51
		c8.6,0,19.2-2.7,27-7.7l1.9,22.5c-10.4,4.8-22.4,5.6-31.5,5.6c-41.1,0-69.4-32.3-69.4-71.3c0-41.4,27.8-71.3,69.4-71.3
		c10.2,0,23.2,2.4,30.4,5.3L1518.7,107.6z"/>
	<rect id="l2" x="1548.3" y="20.5" class="st5" width="25.1" height="200.3"/>
	<path id="e2" class="st5" d="M1705.2,215.2c-9.6,3.5-20.6,8.8-43,8.8c-48.3,0-70.5-29.4-70.5-73.7c0-40.3,25.4-68.9,63.8-68.9
		c45.4,0,60.1,33.1,60.1,76.9h-97.2c0,27,21.1,45.4,44.9,45.4c16.6,0,35.8-8.6,41.9-13.6L1705.2,215.2L1705.2,215.2z M1688.9,139.6
		c0-20.8-12.3-37.9-33.9-37.9c-24.6,0-34.7,20.3-36.6,37.9H1688.9z"/>
</g>
</svg>
