<?xml version="1.0" encoding="utf-8"?>
<!-- Generator: Adobe Illustrator 22.1.0, SVG Export Plug-In . SVG Version: 6.00 Build 0)  -->
<svg version="1.1" id="Layer_1" xmlns="http://www.w3.org/2000/svg" xmlns:xlink="http://www.w3.org/1999/xlink" x="0px" y="0px"
	 viewBox="0 0 576 164" style="enable-background:new 0 0 576 164;" xml:space="preserve">
<style type="text/css">
	.st0{fill:#EE3524;}
	.st1{fill:#F8971D;}
	.st2{fill:#56A0D3;}
	.st3{fill:#003C6F;}
	.st4{fill:#8A8C8E;}
	.st5{fill:#FFFFFF;}
	.st6{clip-path:url(#SVGID_2_);fill:#FFFFFF;}
</style>
<g>
	<polygon class="st0" points="113.5,112.3 3.4,112.3 3.4,100.5 113.5,100.5 113.5,112.3 	"/>
	<polygon class="st1" points="223.6,112.3 113.5,112.3 113.5,100.5 223.6,100.5 223.6,112.3 	"/>
	<polygon class="st2" points="333.6,112.3 223.6,112.3 223.6,100.5 333.6,100.5 333.6,112.3 	"/>
	<polygon class="st3" points="443.7,112.3 333.6,112.3 333.6,100.5 443.7,100.5 443.7,112.3 	"/>
	<polygon class="st4" points="553.8,112.3 443.7,112.3 443.7,100.5 553.8,100.5 553.8,112.3 	"/>
	<path class="st0" d="M190.4,134.2c0-0.3,0.2-0.6,0.6-0.6h12.2c0.3,0,0.6,0.3,0.6,0.6v3.2c0,0.3-0.2,0.6-0.6,0.6H195v3.6h6.7
		c0.3,0,0.6,0.3,0.6,0.6v3.2c0,0.3-0.3,0.6-0.6,0.6H195v4h8.1c0.3,0,0.6,0.3,0.6,0.6v3.2c0,0.3-0.2,0.6-0.6,0.6h-12.2
		c-0.3,0-0.6-0.3-0.6-0.6V134.2L190.4,134.2z"/>
	<path class="st0" d="M211.2,133.9c0-0.3,0.3-0.5,0.6-0.5h0.7l11.7,11.3h0v-10.4c0-0.3,0.2-0.6,0.6-0.6h3.5c0.3,0,0.6,0.3,0.6,0.6
		V154c0,0.3-0.3,0.5-0.6,0.5h-0.5c-0.1,0-0.3-0.1-0.4-0.2l-11.6-11.7h0v11c0,0.3-0.2,0.6-0.6,0.6h-3.5c-0.3,0-0.6-0.3-0.6-0.6
		L211.2,133.9L211.2,133.9z"/>
	<path class="st0" d="M245,149.9c3.3,0,5.7-2.6,5.7-6c0-3.3-2.4-5.9-5.7-5.9h-2.8v11.9H245L245,149.9z M237.6,134.2
		c0-0.3,0.2-0.6,0.5-0.6h7.2c5.7,0,10.3,4.6,10.3,10.2c0,5.7-4.6,10.3-10.3,10.3h-7.2c-0.3,0-0.5-0.3-0.5-0.6V134.2L237.6,134.2z"/>
	<path class="st0" d="M281.9,147.2l-2.2-4.8h0l-2.2,4.8H281.9L281.9,147.2z M269.8,153.4l9.2-19.8c0.1-0.2,0.3-0.3,0.5-0.3h0.3
		c0.2,0,0.4,0.1,0.5,0.3l9.2,19.8c0.2,0.4-0.1,0.8-0.5,0.8h-3.3c-0.5,0-0.8-0.2-1-0.7l-1.1-2.3h-8l-1.1,2.3
		c-0.1,0.4-0.5,0.7-1.1,0.7h-3.2C269.9,154.2,269.7,153.8,269.8,153.4"/>
	<path class="st0" d="M295.6,134.2c0-0.3,0.3-0.6,0.6-0.6h3.5c0.3,0,0.6,0.3,0.6,0.6v19.4c0,0.3-0.3,0.6-0.6,0.6h-3.5
		c-0.3,0-0.6-0.3-0.6-0.6V134.2L295.6,134.2z"/>
	<path class="st0" d="M316,149.9c3.3,0,5.7-2.6,5.7-6c0-3.3-2.4-5.9-5.7-5.9h-2.8v11.9H316L316,149.9z M308.6,134.2
		c0-0.3,0.2-0.6,0.5-0.6h7.2c5.7,0,10.3,4.6,10.3,10.2c0,5.7-4.6,10.3-10.3,10.3h-7.2c-0.3,0-0.5-0.3-0.5-0.6V134.2L308.6,134.2z"/>
	<path class="st0" d="M332.5,151.4l1.4-2.4c0.2-0.4,0.8-0.3,1-0.2c0.1,0.1,2.2,1.6,4.2,1.6c1.2,0,2-0.7,2-1.8c0-1.2-1-2.2-3-3
		c-2.5-1-5.7-3-5.7-6.5c0-2.9,2.3-5.8,6.8-5.8c3.1,0,5.4,1.6,6.3,2.2c0.4,0.2,0.3,0.7,0.2,0.9l-1.5,2.3c-0.2,0.3-0.7,0.6-1,0.4
		c-0.3-0.1-2.4-1.8-4.2-1.8c-1.1,0-1.9,0.7-1.9,1.5c0,1.1,0.9,1.9,3.2,2.8c2.3,0.9,5.9,2.7,5.9,6.7c0,3-2.6,6.1-6.9,6.1
		c-3.8,0-5.9-1.6-6.6-2.3C332.3,151.9,332.2,151.8,332.5,151.4"/>
	<path class="st5" d="M4.9,151.4l1.4-2.4c0.2-0.4,0.8-0.3,1-0.2c0.1,0.1,2.2,1.6,4.2,1.6c1.2,0,2-0.7,2-1.8c0-1.2-1-2.2-3-3
		c-2.5-1-5.7-3-5.7-6.5c0-2.9,2.3-5.8,6.8-5.8c3.1,0,5.4,1.6,6.3,2.2c0.4,0.2,0.3,0.7,0.2,0.9l-1.5,2.3c-0.2,0.3-0.7,0.6-1,0.4
		c-0.3-0.1-2.4-1.8-4.2-1.8c-1.1,0-1.9,0.7-1.9,1.5c0,1.1,0.9,1.9,3.2,2.8c2.3,0.9,5.9,2.7,5.9,6.7c0,3-2.6,6.1-6.9,6.1
		c-3.8,0-5.9-1.6-6.6-2.3C4.8,151.9,4.7,151.8,4.9,151.4"/>
	<path class="st5" d="M25.7,134.2c0-0.3,0.2-0.6,0.6-0.6h12.2c0.3,0,0.6,0.3,0.6,0.6v3.2c0,0.3-0.2,0.6-0.6,0.6h-8.1v4.2h6.7
		c0.3,0,0.6,0.3,0.6,0.6v3.2c0,0.3-0.3,0.6-0.6,0.6h-6.7v7.1c0,0.3-0.3,0.6-0.6,0.6h-3.5c-0.3,0-0.6-0.3-0.6-0.6V134.2L25.7,134.2z"
		/>
	<path class="st5" d="M60.7,138h-4.2c-0.3,0-0.6-0.3-0.6-0.6v-3.2c0-0.3,0.2-0.6,0.6-0.6h13c0.3,0,0.6,0.3,0.6,0.6v3.2
		c0,0.3-0.2,0.6-0.6,0.6h-4.2v15.7c0,0.3-0.3,0.6-0.6,0.6h-3.5c-0.3,0-0.6-0.3-0.6-0.6V138L60.7,138z"/>
	<path class="st5" d="M84.7,149.8c3.2,0,5.9-2.6,5.9-5.8c0-3.2-2.6-5.9-5.9-5.9c-3.2,0-5.8,2.7-5.8,5.9
		C78.8,147.2,81.5,149.8,84.7,149.8 M84.7,133.4c5.9,0,10.6,4.7,10.6,10.6c0,5.9-4.7,10.5-10.6,10.5c-5.9,0-10.5-4.7-10.5-10.5
		C74.1,138.1,78.8,133.4,84.7,133.4"/>
	<path class="st5" d="M112,134.2c0-0.3,0.2-0.6,0.6-0.6h3.5c0.3,0,0.6,0.3,0.6,0.6v15.7h7c0.3,0,0.6,0.3,0.6,0.6v3.2
		c0,0.3-0.2,0.6-0.6,0.6h-11c-0.3,0-0.6-0.3-0.6-0.6V134.2L112,134.2z"/>
	<path class="st5" d="M141.1,147.2l-2.2-4.8h0l-2.2,4.8H141.1L141.1,147.2z M129,153.4l9.2-19.8c0.1-0.2,0.3-0.3,0.5-0.3h0.3
		c0.2,0,0.4,0.1,0.5,0.3l9.2,19.8c0.2,0.4-0.1,0.8-0.5,0.8h-3.3c-0.5,0-0.8-0.2-1-0.7l-1.1-2.3h-8l-1.1,2.3
		c-0.1,0.4-0.5,0.7-1.1,0.7h-3.2C129.1,154.2,128.9,153.8,129,153.4"/>
	<path class="st5" d="M165.2,143.9c0-2.1,1.7-3.8,3.7-3.8c2.1,0,3.8,1.7,3.8,3.8c0,2-1.7,3.7-3.8,3.7
		C166.9,147.6,165.2,145.9,165.2,143.9"/>
	<path class="st5" d="M361.6,143.9c0-2.1,1.7-3.8,3.7-3.8c2.1,0,3.8,1.7,3.8,3.8c0,2-1.7,3.7-3.8,3.7
		C363.3,147.6,361.6,145.9,361.6,143.9"/>
	<path class="st5" d="M385.8,151.1l1.8-1.8c0.2-0.2,0.5-0.2,0.7-0.1c0,0,2.1,1.4,3.5,1.4c1.6,0,2.8-1.2,2.8-2.8c0-1.6-1.1-2.8-3-2.8
		H387c-0.6,0-0.9-0.6-0.9-1v-9.1c0-0.3,0.2-0.6,0.6-0.6h9.5c0.3,0,0.6,0.3,0.6,0.6v2.6c0,0.3-0.2,0.6-0.6,0.6h-6v3.1h2.1
		c4.1,0,6.7,2.8,6.7,6.7c0,3.7-3.1,6.7-7.3,6.7c-3.1,0-5.1-1.6-5.8-2.4C385.4,151.6,385.4,151.4,385.8,151.1"/>
	<path class="st5" d="M412.6,146.4V141l-4.7,5.5H412.6L412.6,146.4z M403.3,149.5v-3.1l10.2-12.3c0.1-0.1,0.2-0.2,0.4-0.2h2.1
		c0.3,0,0.6,0.2,0.6,0.6l0,12h2.3c0.3,0,0.6,0.2,0.6,0.5v2.4c0,0.3-0.2,0.6-0.6,0.6h-2.3l0,3.6c0,0.3-0.3,0.6-0.6,0.6H413
		c-0.3,0-0.6-0.3-0.6-0.6v-3.6h-8.6C403.5,150.1,403.3,149.8,403.3,149.5"/>
	<path class="st5" d="M425.6,151.1l1.9-1.8c0.2-0.2,0.5-0.2,0.7-0.1c0,0,2.1,1.4,3.5,1.4c1.6,0,2.8-1.2,2.8-2.8c0-1.6-1.1-2.8-3-2.8
		h-4.5c-0.6,0-0.9-0.6-0.9-1v-9.1c0-0.3,0.2-0.6,0.6-0.6h9.5c0.3,0,0.6,0.3,0.6,0.6v2.6c0,0.3-0.2,0.6-0.6,0.6H430v3.1h2.1
		c4.1,0,6.7,2.8,6.7,6.7c0,3.7-3.1,6.7-7.3,6.7c-3.1,0-5.1-1.6-5.8-2.4C425.3,151.6,425.3,151.4,425.6,151.1"/>
	<path class="st5" d="M458,133.8c0-0.3,0.3-0.5,0.5-0.5h0.5c0.1,0,0.4,0.1,0.5,0.3l6.8,12.7h0.1l6.8-12.7c0.1-0.2,0.4-0.3,0.5-0.3
		h0.5c0.2,0,0.5,0.2,0.5,0.5l3.3,19.7c0.1,0.4-0.2,0.6-0.6,0.6H474c-0.3,0-0.5-0.2-0.6-0.5l-1.3-9.1h-0.1l-4.9,9.5
		c-0.1,0.2-0.4,0.3-0.5,0.3h-0.5c-0.2,0-0.4-0.1-0.5-0.3l-5-9.5h-0.1l-1.3,9.1c0,0.2-0.3,0.5-0.6,0.5h-3.5c-0.3,0-0.6-0.3-0.6-0.6
		L458,133.8L458,133.8z"/>
	<path class="st5" d="M485.4,134.2c0-0.3,0.3-0.6,0.6-0.6h3.5c0.3,0,0.6,0.3,0.6,0.6v19.4c0,0.3-0.3,0.6-0.6,0.6H486
		c-0.3,0-0.6-0.3-0.6-0.6V134.2L485.4,134.2z"/>
	<path class="st5" d="M498.8,134.2c0-0.3,0.2-0.6,0.6-0.6h3.5c0.3,0,0.6,0.3,0.6,0.6v15.7h7c0.3,0,0.6,0.3,0.6,0.6v3.2
		c0,0.3-0.2,0.6-0.6,0.6h-11c-0.3,0-0.6-0.3-0.6-0.6V134.2L498.8,134.2z"/>
	<path class="st5" d="M517.5,134.2c0-0.3,0.2-0.6,0.6-0.6h12.2c0.3,0,0.6,0.3,0.6,0.6v3.2c0,0.3-0.2,0.6-0.6,0.6h-8.1v3.6h6.7
		c0.3,0,0.6,0.3,0.6,0.6v3.2c0,0.3-0.3,0.6-0.6,0.6h-6.7v4h8.1c0.3,0,0.6,0.3,0.6,0.6v3.2c0,0.3-0.2,0.6-0.6,0.6H518
		c-0.3,0-0.6-0.3-0.6-0.6V134.2L517.5,134.2z"/>
	<path class="st5" d="M537.2,151.4l1.4-2.4c0.2-0.4,0.8-0.3,1-0.2c0.1,0.1,2.2,1.6,4.2,1.6c1.2,0,2-0.7,2-1.8c0-1.2-1-2.2-3-3
		c-2.5-1-5.7-3-5.7-6.5c0-2.9,2.3-5.8,6.8-5.8c3.1,0,5.4,1.6,6.3,2.2c0.3,0.2,0.3,0.7,0.2,0.9l-1.5,2.3c-0.2,0.3-0.7,0.6-1,0.4
		c-0.3-0.1-2.4-1.8-4.2-1.8c-1.1,0-1.8,0.7-1.8,1.5c0,1.1,0.9,1.9,3.2,2.8c2.3,0.9,5.9,2.7,5.9,6.7c0,3-2.6,6.1-6.9,6.1
		c-3.8,0-5.9-1.6-6.6-2.3C537,151.9,536.9,151.8,537.2,151.4"/>
	<path class="st5" d="M37.5,31.4h-0.2l-7.8,23.6h15.1L37.5,31.4L37.5,31.4z M27.6,18.9h19.7l23.2,60.3H52.9l-4.5-12.9H25.8
		l-4.7,12.9H4.8L27.6,18.9L27.6,18.9z"/>
	<polygon class="st5" points="74.2,18.9 90.3,18.9 90.3,79.2 74.2,79.2 74.2,18.9 	"/>
	<path class="st5" d="M114.9,67.3h6.2c12,0,18.7-6.2,18.7-18.2c0-12-7-18.2-18.7-18.2h-6.2V67.3L114.9,67.3z M98.8,18.9h21.9
		c21,0,35.7,6.6,35.7,29.9c0,22.5-15.1,30.4-35.7,30.4H98.8V18.9L98.8,18.9z"/>
	<g>
		<defs>
			<rect id="SVGID_1_" x="3.4" y="7.1" width="569.2" height="147.4"/>
		</defs>
		<clipPath id="SVGID_2_">
			<use xlink:href="#SVGID_1_"  style="overflow:visible;"/>
		</clipPath>
		<path class="st6" d="M161,64.3c4.1,2.2,9.9,4,16.6,4c5.1,0,9.9-1,9.9-5.9c0-11.2-28.5-4.1-28.5-26.1c0-14.5,14.2-18.5,26.2-18.5
			c5.8,0,11.5,0.9,15.5,2.2l-1,12.4c-4.1-1.9-8.8-2.8-13.4-2.8c-4.1,0-10.8,0.3-10.8,5.6c0,9.8,28.5,3.2,28.5,25
			c0,15.6-13.1,19.9-26.5,19.9c-5.6,0-12.6-0.9-18-2.6L161,64.3L161,64.3z"/>
		<polygon class="st6" points="226.4,7.1 234,7.1 212,89.5 204.4,89.5 226.4,7.1 		"/>
	</g>
	<polygon class="st5" points="237.1,18.9 245.7,18.9 245.7,71.6 270.9,71.6 270.9,79.2 237.1,79.2 237.1,18.9 	"/>
	<path class="st5" d="M278.9,35.2h8.1v44h-8.1V35.2L278.9,35.2z M287.5,25.3h-9.2v-9.2h9.2V25.3L287.5,25.3z"/>
	<path class="st5" d="M303.6,41.7h-10.4v-6.6h10.4v-4.1c0-10.7,2.8-17.7,14.8-17.7c2.1,0,3.8,0.3,5.4,0.5l-0.3,6.6
		c-1-0.3-2.5-0.5-3.9-0.5c-7,0-7.9,4.5-7.9,10.4v4.7h11.7v6.6h-11.7v37.5h-8.1V41.7L303.6,41.7z"/>
	<path class="st5" d="M357,53c0-6.7-4-12.3-11-12.3c-7.9,0-11.2,6.6-11.8,12.3H357L357,53z M362.3,77.4c-3.1,1.1-6.6,2.9-13.9,2.9
		c-15.6,0-22.8-9.5-22.8-23.8c0-13,8.2-22.3,20.6-22.3c14.7,0,19.4,10.7,19.4,24.9h-31.4c0,8.7,6.8,14.7,14.5,14.7
		c5.4,0,11.6-2.8,13.6-4.4V77.4L362.3,77.4z"/>
	<path class="st5" d="M415.5,28.9c-3.8-2.2-8-3.4-12.4-3.4c-13.9,0-23.1,10-23.1,23.6c0,14.2,10.2,23.6,22.7,23.6
		c4.3,0,10.1-1.1,13.1-2.9l0.5,8.4c-4.6,1.9-10.2,2.2-13.7,2.2c-19.1,0-31.8-12.3-31.8-31.4c0-18.6,13.5-30.9,31.9-30.9
		c4.7,0,9.2,0.7,13.6,2.6L415.5,28.9L415.5,28.9z"/>
	<path class="st5" d="M490.1,42.6c-3.1-1.3-6.2-1.9-8.8-1.9c-9.1,0-14.2,8.1-14.2,16.5c0,7.9,4.2,16.5,14.7,16.5
		c2.8,0,6.2-0.9,8.7-2.5l0.6,7.3c-3.4,1.6-7.2,1.8-10.2,1.8c-13.3,0-22.5-10.4-22.5-23.1c0-13.4,9-23.1,22.5-23.1
		c3.3,0,7.5,0.8,9.8,1.7L490.1,42.6L490.1,42.6z"/>
	<polygon class="st5" points="499.7,14.4 507.8,14.4 507.8,79.2 499.7,79.2 499.7,14.4 	"/>
	<path class="st5" d="M545.1,53c0-6.7-4-12.3-11-12.3c-7.9,0-11.2,6.6-11.8,12.3H545.1L545.1,53z M550.4,77.4
		c-3.1,1.1-6.6,2.9-13.9,2.9c-15.6,0-22.8-9.5-22.8-23.8c0-13,8.2-22.3,20.6-22.3c14.7,0,19.4,10.7,19.4,24.9h-31.4
		c0,8.7,6.8,14.7,14.5,14.7c5.4,0,11.6-2.8,13.6-4.4V77.4L550.4,77.4z"/>
	<path class="st5" d="M443.8,77.4c-3,8.5-6.2,18.2-16.9,18.2c-2.6,0-4.1-0.3-5.5-0.6l0.5-6.6c1,0.3,2.4,0.7,3.8,0.7
		c5,0,7.5-5,8.7-8.1h0c0-1-1-3.2-1.6-4.7l-14.9-41.1h8.9l11.8,36.4h0.2l12.1-36.4h8.2L443.8,77.4L443.8,77.4z"/>
	<path class="st5" d="M556.3,18.7c-1.6,1.7-2.5,3.7-2.5,6c0,2.4,0.8,4.4,2.5,6.1c1.7,1.7,3.7,2.5,6,2.5c2.3,0,4.3-0.8,6-2.5
		c1.7-1.7,2.5-3.7,2.5-6.1c0-2.3-0.8-4.3-2.5-6c-1.7-1.7-3.7-2.6-6-2.6C559.9,16.2,557.9,17,556.3,18.7 M569.5,32.1
		c-2,1.9-4.4,2.9-7.2,2.9c-2.9,0-5.3-1-7.3-3c-2-2-3-4.4-3-7.3c0-3,1.1-5.5,3.2-7.5c2-1.9,4.4-2.8,7.1-2.8c2.8,0,5.3,1,7.3,3
		c2,2,3,4.4,3,7.3C572.6,27.6,571.6,30.1,569.5,32.1"/>
	<path class="st5" d="M562.5,24.1c1.7,0,2.6-0.4,2.6-1.9c0-1.4-0.9-1.8-2.6-1.8h-2.2v3.7H562.5L562.5,24.1z M558.2,18.6h4.3
		c2.9,0,4.5,1.2,4.5,3.6c0,1.9-1,3-2.7,3.4l2.8,5h-2.2l-2.7-4.8h-2.1v4.8h-2V18.6L558.2,18.6z"/>
</g>
</svg>
