<svg id="Layer_1" data-name="Layer 1" xmlns="http://www.w3.org/2000/svg" viewBox="0 0 569.17 147.35">
  <title>2018-ALC-Logo-Full-Color-Triptych</title>
  <rect y="93.36" width="110.07" height="11.84" style="fill: #ee3524"/>
  <rect x="110.07" y="93.36" width="110.07" height="11.84" style="fill: #f8971d"/>
  <rect x="220.14" y="93.36" width="110.07" height="11.84" style="fill: #56a0d3"/>
  <rect x="330.21" y="93.36" width="110.08" height="11.84" style="fill: #003c6f"/>
  <rect x="440.28" y="93.36" width="110.07" height="11.84" style="fill: #8a8c8e"/>
  <path d="M196,134.23a0.56,0.56,0,0,1,.56-0.56H208.7a0.56,0.56,0,0,1,.56.56v3.2a0.56,0.56,0,0,1-.56.56h-8.13v3.64h6.7a0.58,0.58,0,0,1,.55.56v3.2a0.56,0.56,0,0,1-.55.56h-6.7v4h8.13a0.55,0.55,0,0,1,.56.55v3.21a0.55,0.55,0,0,1-.56.55H196.54a0.55,0.55,0,0,1-.56-0.55V134.23Z" transform="translate(-9.02 -7.17)" style="fill: #ee3524"/>
  <path d="M216.83,133.9a0.55,0.55,0,0,1,.56-0.53h0.74l11.72,11.28h0V134.23a0.56,0.56,0,0,1,.56-0.56H234a0.58,0.58,0,0,1,.56.56V154a0.55,0.55,0,0,1-.56.53h-0.47a0.84,0.84,0,0,1-.39-0.15l-11.6-11.66h0v11a0.56,0.56,0,0,1-.56.56h-3.49a0.57,0.57,0,0,1-.56-0.56Z" transform="translate(-9.02 -7.17)" style="fill: #ee3524"/>
  <path d="M243.22,134.23a0.56,0.56,0,0,1,.53-0.56h7.17a10.28,10.28,0,1,1,0,20.55h-7.17a0.55,0.55,0,0,1-.53-0.56V134.23Zm7.4,15.65a6,6,0,0,0,0-11.89h-2.82v11.89h2.82Z" transform="translate(-9.02 -7.17)" style="fill: #ee3524"/>
  <path d="M275.44,153.46l9.19-19.76a0.59,0.59,0,0,1,.5-0.33h0.29a0.59,0.59,0,0,1,.5.33l9.19,19.76a0.52,0.52,0,0,1-.5.76h-3.26a1,1,0,0,1-1-.73l-1.06-2.32h-8l-1.06,2.35a1.09,1.09,0,0,1-1.05.7h-3.23a0.52,0.52,0,0,1-.5-0.76m12.07-6.29-2.23-4.84h0L283,147.17h4.46Z" transform="translate(-9.02 -7.17)" style="fill: #ee3524"/>
  <rect x="292.17" y="126.5" width="4.64" height="20.55" rx="0.56" ry="0.56" style="fill: #ee3524"/>
  <path d="M314.19,134.23a0.55,0.55,0,0,1,.53-0.56h7.17a10.28,10.28,0,1,1,0,20.55h-7.17a0.55,0.55,0,0,1-.53-0.56V134.23Zm7.4,15.65a6,6,0,0,0,0-11.89h-2.82v11.89h2.82Z" transform="translate(-9.02 -7.17)" style="fill: #ee3524"/>
  <path d="M338.08,151.43l1.38-2.44a0.76,0.76,0,0,1,1-.18,8.75,8.75,0,0,0,4.17,1.62,1.84,1.84,0,0,0,2-1.76c0-1.23-1-2.17-3-3-2.53-1-5.7-3-5.7-6.49,0-2.91,2.26-5.85,6.78-5.85a10.88,10.88,0,0,1,6.28,2.21,0.74,0.74,0,0,1,.18.94l-1.5,2.26a0.83,0.83,0,0,1-1,.38c-0.26-.14-2.41-1.76-4.2-1.76a1.7,1.7,0,0,0-1.85,1.5c0,1.08.88,1.91,3.2,2.85s5.93,2.7,5.93,6.7c0,3-2.61,6.08-6.93,6.08a9.32,9.32,0,0,1-6.61-2.27,0.53,0.53,0,0,1-.14-0.82" transform="translate(-9.02 -7.17)" style="fill: #ee3524"/>
  <path d="M10.52,151.43L11.9,149a0.75,0.75,0,0,1,1-.18,8.77,8.77,0,0,0,4.17,1.62,1.84,1.84,0,0,0,2-1.76c0-1.23-1-2.17-3-3-2.52-1-5.7-3-5.7-6.49,0-2.91,2.26-5.85,6.78-5.85a10.89,10.89,0,0,1,6.28,2.21,0.74,0.74,0,0,1,.18.94l-1.5,2.26a0.83,0.83,0,0,1-1,.38c-0.26-.14-2.41-1.76-4.2-1.76a1.7,1.7,0,0,0-1.85,1.5c0,1.08.88,1.91,3.2,2.85s5.93,2.7,5.93,6.7c0,3-2.62,6.08-6.93,6.08a9.31,9.31,0,0,1-6.61-2.27,0.53,0.53,0,0,1-.15-0.82" transform="translate(-9.02 -7.17)" style="fill: #231f20"/>
  <path d="M31.27,134.23a0.56,0.56,0,0,1,.56-0.56H44a0.56,0.56,0,0,1,.56.56v3.2A0.56,0.56,0,0,1,44,138H35.85v4.23h6.7a0.58,0.58,0,0,1,.56.56V146a0.57,0.57,0,0,1-.56.55h-6.7v7.14a0.58,0.58,0,0,1-.56.55H31.83a0.56,0.56,0,0,1-.56-0.55V134.23Z" transform="translate(-9.02 -7.17)" style="fill: #231f20"/>
  <path d="M66.27,138h-4.2a0.56,0.56,0,0,1-.56-0.56v-3.2a0.56,0.56,0,0,1,.56-0.56h13a0.56,0.56,0,0,1,.56.56v3.2a0.56,0.56,0,0,1-.56.56h-4.2v15.68a0.58,0.58,0,0,1-.56.55H66.83a0.58,0.58,0,0,1-.56-0.55V138Z" transform="translate(-9.02 -7.17)" style="fill: #231f20"/>
  <path d="M90.29,133.38A10.57,10.57,0,1,1,79.75,144a10.55,10.55,0,0,1,10.54-10.6m0,16.44A5.87,5.87,0,1,0,84.45,144a5.88,5.88,0,0,0,5.84,5.84" transform="translate(-9.02 -7.17)" style="fill: #231f20"/>
  <path d="M117.64,134.23a0.56,0.56,0,0,1,.56-0.56h3.49a0.58,0.58,0,0,1,.56.56v15.68h7a0.55,0.55,0,0,1,.56.55v3.21a0.56,0.56,0,0,1-.56.55h-11a0.56,0.56,0,0,1-.56-0.55V134.23Z" transform="translate(-9.02 -7.17)" style="fill: #231f20"/>
  <path d="M134.64,153.46l9.19-19.76a0.6,0.6,0,0,1,.5-0.33h0.29a0.6,0.6,0,0,1,.5.33l9.19,19.76a0.52,0.52,0,0,1-.5.76h-3.26a1,1,0,0,1-1-.73l-1.06-2.32h-8l-1.06,2.35a1.09,1.09,0,0,1-1.05.7h-3.23a0.52,0.52,0,0,1-.5-0.76m12.07-6.29-2.23-4.84h0l-2.2,4.84h4.46Z" transform="translate(-9.02 -7.17)" style="fill: #231f20"/>
  <path d="M170.8,143.9a3.83,3.83,0,0,1,3.72-3.83,3.78,3.78,0,1,1,0,7.55,3.79,3.79,0,0,1-3.72-3.72" transform="translate(-9.02 -7.17)" style="fill: #231f20"/>
  <path d="M367.18,143.9a3.78,3.78,0,1,1,3.73,3.72,3.79,3.79,0,0,1-3.73-3.72" transform="translate(-9.02 -7.17)" style="fill: #231f20"/>
  <path d="M391.37,151.08l1.85-1.82a0.59,0.59,0,0,1,.7-0.09,8.48,8.48,0,0,0,3.5,1.41,2.72,2.72,0,0,0,2.79-2.79,2.79,2.79,0,0,0-3-2.85h-4.52a1,1,0,0,1-.91-1v-9.11a0.56,0.56,0,0,1,.56-0.55h9.46a0.56,0.56,0,0,1,.56.55v2.59a0.56,0.56,0,0,1-.56.56h-6v3.14h2.08a6.4,6.4,0,0,1,6.7,6.69,7,7,0,0,1-7.25,6.72,7.74,7.74,0,0,1-5.81-2.44c-0.38-.44-0.41-0.65-0.06-1" transform="translate(-9.02 -7.17)" style="fill: #231f20"/>
  <path d="M408.91,149.53v-3.11l10.25-12.3a0.51,0.51,0,0,1,.44-0.18h2.11a0.56,0.56,0,0,1,.56.56l0,12h2.32a0.53,0.53,0,0,1,.56.53v2.44a0.55,0.55,0,0,1-.56.55h-2.32l0,3.62a0.58,0.58,0,0,1-.56.55h-3.14a0.58,0.58,0,0,1-.56-0.55v-3.58h-8.6a0.56,0.56,0,0,1-.56-0.56m9.28-3.08V141l-4.67,5.46h4.67Z" transform="translate(-9.02 -7.17)" style="fill: #231f20"/>
  <path d="M431.25,151.08l1.85-1.82a0.58,0.58,0,0,1,.7-0.09,8.49,8.49,0,0,0,3.49,1.41,2.71,2.71,0,0,0,2.79-2.79,2.79,2.79,0,0,0-3-2.85h-4.52a1,1,0,0,1-.91-1v-9.11a0.56,0.56,0,0,1,.56-0.55h9.46a0.56,0.56,0,0,1,.56.55v2.59a0.56,0.56,0,0,1-.56.56h-6.05v3.14h2.09a6.4,6.4,0,0,1,6.69,6.69,7,7,0,0,1-7.25,6.72,7.74,7.74,0,0,1-5.81-2.44c-0.38-.44-0.41-0.65-0.06-1" transform="translate(-9.02 -7.17)" style="fill: #231f20"/>
  <path d="M463.63,133.84a0.56,0.56,0,0,1,.53-0.47h0.47a0.64,0.64,0,0,1,.5.29l6.81,12.69H472l6.81-12.69a0.65,0.65,0,0,1,.5-0.29h0.47a0.56,0.56,0,0,1,.53.47l3.32,19.73a0.54,0.54,0,0,1-.56.65h-3.46a0.6,0.6,0,0,1-.56-0.47l-1.32-9.07h-0.06l-4.93,9.52a0.7,0.7,0,0,1-.5.32h-0.53a0.64,0.64,0,0,1-.5-0.32l-5-9.52h-0.06l-1.29,9.07a0.57,0.57,0,0,1-.56.47h-3.47a0.54,0.54,0,0,1-.56-0.65Z" transform="translate(-9.02 -7.17)" style="fill: #231f20"/>
  <path d="M491.05,134.23a0.58,0.58,0,0,1,.56-0.56h3.52a0.58,0.58,0,0,1,.56.56v19.44a0.58,0.58,0,0,1-.56.55h-3.52a0.58,0.58,0,0,1-.56-0.55V134.23Z" transform="translate(-9.02 -7.17)" style="fill: #231f20"/>
  <path d="M504.41,134.23a0.56,0.56,0,0,1,.56-0.56h3.49a0.57,0.57,0,0,1,.56.56v15.68h7a0.55,0.55,0,0,1,.56.55v3.21a0.55,0.55,0,0,1-.56.55H505a0.56,0.56,0,0,1-.56-0.55V134.23Z" transform="translate(-9.02 -7.17)" style="fill: #231f20"/>
  <path d="M523.09,134.23a0.56,0.56,0,0,1,.56-0.56H535.8a0.56,0.56,0,0,1,.56.56v3.2a0.56,0.56,0,0,1-.56.56h-8.13v3.64h6.69a0.58,0.58,0,0,1,.56.56v3.2a0.56,0.56,0,0,1-.56.56h-6.69v4h8.13a0.55,0.55,0,0,1,.56.55v3.21a0.56,0.56,0,0,1-.56.55H523.64a0.55,0.55,0,0,1-.56-0.55V134.23Z" transform="translate(-9.02 -7.17)" style="fill: #231f20"/>
  <path d="M542.79,151.43l1.38-2.44a0.76,0.76,0,0,1,1-.18,8.73,8.73,0,0,0,4.17,1.62,1.84,1.84,0,0,0,2-1.76c0-1.23-1-2.17-3-3-2.52-1-5.7-3-5.7-6.49,0-2.91,2.26-5.85,6.78-5.85a10.89,10.89,0,0,1,6.28,2.21,0.74,0.74,0,0,1,.18.94l-1.5,2.26a0.83,0.83,0,0,1-1,.38c-0.26-.14-2.41-1.76-4.2-1.76a1.7,1.7,0,0,0-1.85,1.5c0,1.08.88,1.91,3.2,2.85s5.93,2.7,5.93,6.7c0,3-2.61,6.08-6.93,6.08a9.33,9.33,0,0,1-6.61-2.27,0.53,0.53,0,0,1-.14-0.82" transform="translate(-9.02 -7.17)" style="fill: #231f20"/>
  <path d="M33.25,19H52.94L76.16,79.22H58.55L54.06,66.36H31.44L26.69,79.22H10.37Zm9.84,12.43H42.92L35.15,55H50.26Z" transform="translate(-9.02 -7.17)" style="fill: #231f20"/>
  <rect x="70.78" y="11.79" width="16.06" height="60.27" style="fill: #231f20"/>
  <path d="M104.42,19h21.93c21,0,35.66,6.56,35.66,29.87,0,22.53-15.11,30.39-35.66,30.39H104.42V19ZM120.48,67.3h6.22c12,0,18.74-6.21,18.74-18.21s-7-18.22-18.74-18.22h-6.22V67.3Z" transform="translate(-9.02 -7.17)" style="fill: #231f20"/>
  <path d="M166.61,64.37a35.28,35.28,0,0,0,16.58,4c5.09,0,9.93-1,9.93-5.87,0-11.22-28.5-4.14-28.5-26.08,0-14.51,14.16-18.48,26.25-18.48a51,51,0,0,1,15.54,2.24l-1,12.43A32.35,32.35,0,0,0,192,29.83c-4.06,0-10.79.35-10.79,5.61,0,9.76,28.49,3.2,28.49,25,0,15.63-13.12,19.86-26.51,19.86a63.22,63.22,0,0,1-18-2.59Z" transform="translate(-9.02 -7.17)" style="fill: #231f20"/>
  <polygon points="223 0 230.59 0 208.54 82.38 200.94 82.38 223 0" style="fill: #231f20"/>
  <polygon points="233.65 11.79 242.28 11.79 242.28 64.46 267.49 64.46 267.49 72.05 233.65 72.05 233.65 11.79" style="fill: #231f20"/>
  <path d="M293.11,25.34H284V16.19h9.15v9.15Zm-8.64,9.84h8.11v44h-8.11v-44Z" transform="translate(-9.02 -7.17)" style="fill: #231f20"/>
  <path d="M309.26,41.74H298.9V35.18h10.36V31.12c0-10.7,2.77-17.7,14.77-17.7a33.37,33.37,0,0,1,5.44.52l-0.34,6.56a12.91,12.91,0,0,0-3.89-.51c-7,0-7.86,4.49-7.86,10.45v4.75H329v6.56H317.38V79.22h-8.12V41.74Z" transform="translate(-9.02 -7.17)" style="fill: #231f20"/>
  <path d="M367.89,77.4c-3.11,1.13-6.65,2.85-13.9,2.85-15.63,0-22.8-9.5-22.8-23.83,0-13,8.21-22.28,20.64-22.28,14.68,0,19.43,10.71,19.43,24.86H339.84a14.41,14.41,0,0,0,14.5,14.68c5.35,0,11.57-2.76,13.56-4.4V77.4ZM362.63,53c0-6.74-4-12.26-11-12.26-7.95,0-11.22,6.56-11.83,12.26h22.79Z" transform="translate(-9.02 -7.17)" style="fill: #231f20"/>
  <path d="M421.09,28.88a24.26,24.26,0,0,0-12.43-3.37c-13.91,0-23.14,10-23.14,23.57,0,14.16,10.19,23.57,22.71,23.57,4.32,0,10.1-1.12,13.13-2.94l0.52,8.37c-4.58,1.9-10.18,2.16-13.73,2.16-19.09,0-31.78-12.26-31.78-31.43,0-18.56,13.47-30.91,31.86-30.91a33.21,33.21,0,0,1,13.56,2.59Z" transform="translate(-9.02 -7.17)" style="fill: #231f20"/>
  <path d="M495.72,42.61a23.47,23.47,0,0,0-8.81-1.9c-9.06,0-14.16,8.12-14.16,16.49,0,7.86,4.23,16.49,14.67,16.49a17,17,0,0,0,8.72-2.51l0.6,7.25a24.72,24.72,0,0,1-10.19,1.81c-13.3,0-22.45-10.44-22.45-23.05,0-13.38,9-23.05,22.45-23.05a30.5,30.5,0,0,1,9.84,1.73Z" transform="translate(-9.02 -7.17)" style="fill: #231f20"/>
  <rect x="496.24" y="7.29" width="8.12" height="64.76" style="fill: #231f20"/>
  <path d="M556,77.4c-3.11,1.13-6.65,2.85-13.9,2.85-15.63,0-22.8-9.5-22.8-23.83,0-13,8.21-22.28,20.64-22.28,14.68,0,19.43,10.71,19.43,24.86H528a14.41,14.41,0,0,0,14.5,14.68c5.35,0,11.57-2.76,13.56-4.4V77.4ZM550.75,53c0-6.74-4-12.26-11-12.26-7.95,0-11.23,6.56-11.83,12.26h22.79Z" transform="translate(-9.02 -7.17)" style="fill: #231f20"/>
  <path d="M449.39,77.41c-3,8.46-6.22,18.22-16.93,18.22a26.89,26.89,0,0,1-5.52-.6l0.52-6.65a12.38,12.38,0,0,0,3.8.69c5,0,7.54-5,8.68-8.12h0c0-1-1-3.2-1.55-4.67L423.44,35.19h8.89l11.83,36.43h0.18l12.08-36.43h8.2Z" transform="translate(-9.02 -7.17)" style="fill: #231f20"/>
  <path d="M575.12,32.09a10.27,10.27,0,0,1-17.49-7.38,9.8,9.8,0,0,1,3.21-7.49,10.09,10.09,0,0,1,7.08-2.79A10.3,10.3,0,0,1,578.2,24.71a9.92,9.92,0,0,1-3.08,7.38M561.87,18.75a8.54,8.54,0,0,0,0,12,8.42,8.42,0,0,0,12,0,8.52,8.52,0,0,0,0-12,8.34,8.34,0,0,0-12,0" transform="translate(-9.02 -7.17)" style="fill: #231f20"/>
  <path d="M563.85,18.63h4.31c2.87,0,4.52,1.16,4.52,3.61A3.2,3.2,0,0,1,570,25.66l2.83,5h-2.18L568,25.91h-2.12v4.75h-2v-12Zm4.23,5.51c1.69,0,2.6-.42,2.6-1.85s-0.89-1.8-2.62-1.8h-2.21v3.66h2.23Z" transform="translate(-9.02 -7.17)" style="fill: #231f20"/>
</svg>
